<svg width="178" height="26" viewBox="0 0 178 26" fill="none" xmlns="http://www.w3.org/2000/svg">
<path d="M8.06563 25.288C6.67896 25.288 5.43096 25.0427 4.32163 24.552C3.23363 24.04 2.36963 23.3573 1.72963 22.504C1.08963 21.6293 0.748292 20.6587 0.705625 19.592H4.48163C4.54563 20.3387 4.89763 20.968 5.53763 21.48C6.19896 21.9707 7.02029 22.216 8.00163 22.216C9.02563 22.216 9.81496 22.024 10.3696 21.64C10.9456 21.2347 11.2336 20.7227 11.2336 20.104C11.2336 19.4427 10.9136 18.952 10.2736 18.632C9.65496 18.312 8.66296 17.96 7.29763 17.576C5.97496 17.2133 4.89763 16.8613 4.06563 16.52C3.23363 16.1787 2.50829 15.656 1.88963 14.952C1.29229 14.248 0.993625 13.32 0.993625 12.168C0.993625 11.2293 1.27096 10.376 1.82563 9.608C2.38029 8.81867 3.16963 8.2 4.19363 7.752C5.23896 7.304 6.43363 7.08 7.77763 7.08C9.78296 7.08 11.3936 7.592 12.6096 8.616C13.847 9.61867 14.5083 10.9947 14.5936 12.744H10.9456C10.8816 11.9547 10.5616 11.3253 9.98563 10.856C9.40963 10.3867 8.63096 10.152 7.64963 10.152C6.68963 10.152 5.95363 10.3333 5.44163 10.696C4.92963 11.0587 4.67363 11.5387 4.67363 12.136C4.67363 12.6053 4.84429 13 5.18563 13.32C5.52696 13.64 5.94296 13.896 6.43363 14.088C6.92429 14.2587 7.64963 14.4827 8.60963 14.76C9.88963 15.1013 10.935 15.4533 11.7456 15.816C12.5776 16.1573 13.2923 16.6693 13.8896 17.352C14.487 18.0347 14.7963 18.9413 14.8176 20.072C14.8176 21.0747 14.5403 21.9707 13.9856 22.76C13.431 23.5493 12.6416 24.168 11.6176 24.616C10.615 25.064 9.43096 25.288 8.06563 25.288ZM23.0154 10.344V20.104C23.0154 20.7653 23.1647 21.2453 23.4634 21.544C23.7834 21.8213 24.3167 21.96 25.0634 21.96H27.3034V25H24.4234C22.7807 25 21.522 24.616 20.6474 23.848C19.7727 23.08 19.3354 21.832 19.3354 20.104V10.344H17.2554V7.368H19.3354V2.984H23.0154V7.368H27.3034V10.344H23.0154ZM46.6336 7.368V25H42.9856V22.92C42.4096 23.6453 41.6523 24.2213 40.7136 24.648C39.7963 25.0533 38.815 25.256 37.7696 25.256C36.383 25.256 35.135 24.968 34.0256 24.392C32.9376 23.816 32.0736 22.9627 31.4336 21.832C30.815 20.7013 30.5056 19.336 30.5056 17.736V7.368H34.1216V17.192C34.1216 18.7707 34.5163 19.9867 35.3056 20.84C36.095 21.672 37.1723 22.088 38.5376 22.088C39.903 22.088 40.9803 21.672 41.7696 20.84C42.5803 19.9867 42.9856 18.7707 42.9856 17.192V7.368H46.6336ZM50.2309 16.104C50.2309 14.3333 50.5935 12.7653 51.3189 11.4C52.0655 10.0347 53.0682 8.97867 54.3269 8.232C55.6069 7.464 57.0255 7.08 58.5829 7.08C59.7349 7.08 60.8655 7.336 61.9749 7.848C63.1055 8.33867 64.0015 9 64.6629 9.832V1.32H68.3429V25H64.6629V22.344C64.0655 23.1973 63.2335 23.9013 62.1669 24.456C61.1215 25.0107 59.9162 25.288 58.5509 25.288C57.0149 25.288 55.6069 24.904 54.3269 24.136C53.0682 23.3467 52.0655 22.2587 51.3189 20.872C50.5935 19.464 50.2309 17.8747 50.2309 16.104ZM64.6629 16.168C64.6629 14.952 64.4069 13.896 63.8949 13C63.4042 12.104 62.7535 11.4213 61.9429 10.952C61.1322 10.4827 60.2575 10.248 59.3189 10.248C58.3802 10.248 57.5055 10.4827 56.6949 10.952C55.8842 11.4 55.2229 12.072 54.7109 12.968C54.2202 13.8427 53.9749 14.888 53.9749 16.104C53.9749 17.32 54.2202 18.3867 54.7109 19.304C55.2229 20.2213 55.8842 20.9253 56.6949 21.416C57.5269 21.8853 58.4015 22.12 59.3189 22.12C60.2575 22.12 61.1322 21.8853 61.9429 21.416C62.7535 20.9467 63.4042 20.264 63.8949 19.368C64.4069 18.4507 64.6629 17.384 64.6629 16.168ZM89.2944 15.752C89.2944 16.4133 89.2517 17.0107 89.1664 17.544H75.6944C75.801 18.952 76.3237 20.0827 77.2624 20.936C78.201 21.7893 79.353 22.216 80.7184 22.216C82.681 22.216 84.0677 21.3947 84.8784 19.752H88.8144C88.281 21.3733 87.3104 22.7067 85.9024 23.752C84.5157 24.776 82.7877 25.288 80.7184 25.288C79.033 25.288 77.5184 24.9147 76.1744 24.168C74.8517 23.4 73.8064 22.3333 73.0384 20.968C72.2917 19.5813 71.9184 17.9813 71.9184 16.168C71.9184 14.3547 72.281 12.7653 73.0064 11.4C73.753 10.0133 74.7877 8.94667 76.1104 8.2C77.4544 7.45333 78.9904 7.08 80.7184 7.08C82.3824 7.08 83.865 7.44267 85.1664 8.168C86.4677 8.89333 87.481 9.91733 88.2064 11.24C88.9317 12.5413 89.2944 14.0453 89.2944 15.752ZM85.4864 14.6C85.465 13.256 84.985 12.1787 84.0464 11.368C83.1077 10.5573 81.945 10.152 80.5584 10.152C79.2997 10.152 78.2224 10.5573 77.3264 11.368C76.4304 12.1573 75.897 13.2347 75.7264 14.6H85.4864ZM101.78 7.08C103.167 7.08 104.404 7.368 105.492 7.944C106.602 8.52 107.466 9.37333 108.084 10.504C108.703 11.6347 109.012 13 109.012 14.6V25H105.396V15.144C105.396 13.5653 105.002 12.36 104.212 11.528C103.423 10.6747 102.346 10.248 100.98 10.248C99.615 10.248 98.527 10.6747 97.7164 11.528C96.927 12.36 96.5324 13.5653 96.5324 15.144V25H92.8844V7.368H96.5324V9.384C97.1297 8.65867 97.887 8.09333 98.8044 7.688C99.743 7.28267 100.735 7.08 101.78 7.08ZM117.922 10.344V20.104C117.922 20.7653 118.071 21.2453 118.37 21.544C118.69 21.8213 119.223 21.96 119.97 21.96H122.21V25H119.33C117.687 25 116.428 24.616 115.554 23.848C114.679 23.08 114.242 21.832 114.242 20.104V10.344H112.162V7.368H114.242V2.984H117.922V7.368H122.21V10.344H117.922ZM137.532 1.32V25H133.884V1.32H137.532ZM144.178 5.032C143.517 5.032 142.962 4.808 142.514 4.36C142.066 3.912 141.842 3.35733 141.842 2.696C141.842 2.03467 142.066 1.48 142.514 1.032C142.962 0.583999 143.517 0.359999 144.178 0.359999C144.818 0.359999 145.362 0.583999 145.81 1.032C146.258 1.48 146.482 2.03467 146.482 2.696C146.482 3.35733 146.258 3.912 145.81 4.36C145.362 4.808 144.818 5.032 144.178 5.032ZM145.97 7.368V25H142.322V7.368H145.97ZM158.151 10.344H154.887V25H151.207V10.344H149.127V7.368H151.207V6.12C151.207 4.09333 151.741 2.62133 152.807 1.704C153.895 0.765333 155.591 0.296 157.895 0.296V3.336C156.786 3.336 156.007 3.54933 155.559 3.976C155.111 4.38133 154.887 5.096 154.887 6.12V7.368H158.151V10.344ZM177.544 15.752C177.544 16.4133 177.502 17.0107 177.416 17.544H163.944C164.051 18.952 164.574 20.0827 165.512 20.936C166.451 21.7893 167.603 22.216 168.968 22.216C170.931 22.216 172.318 21.3947 173.128 19.752H177.064C176.531 21.3733 175.56 22.7067 174.152 23.752C172.766 24.776 171.038 25.288 168.968 25.288C167.283 25.288 165.768 24.9147 164.424 24.168C163.102 23.4 162.056 22.3333 161.288 20.968C160.542 19.5813 160.168 17.9813 160.168 16.168C160.168 14.3547 160.531 12.7653 161.256 11.4C162.003 10.0133 163.038 8.94667 164.36 8.2C165.704 7.45333 167.24 7.08 168.968 7.08C170.632 7.08 172.115 7.44267 173.416 8.168C174.718 8.89333 175.731 9.91733 176.456 11.24C177.182 12.5413 177.544 14.0453 177.544 15.752ZM173.736 14.6C173.715 13.256 173.235 12.1787 172.296 11.368C171.358 10.5573 170.195 10.152 168.808 10.152C167.55 10.152 166.472 10.5573 165.576 11.368C164.68 12.1573 164.147 13.2347 163.976 14.6H173.736Z" fill="white"/>
</svg>
